<svg width="44" height="31" xmlns="http://www.w3.org/2000/svg" xmlns:xlink="http://www.w3.org/1999/xlink" xml:space="preserve" overflow="hidden"><g transform="translate(-510 -513)"><path d="M21.8711 5.97266C22.1074 5.97266 22.2793 6.14453 22.4727 6.33789L38.0918 23.7188C38.1992 23.8477 38.2852 23.9336 38.2852 24.084 38.2852 24.3848 38.0488 24.6211 37.748 24.6211 37.6191 24.6211 37.4688 24.5781 37.3613 24.4922L21.8926 7.26172 6.35938 24.4922C6.29492 24.5781 6.12305 24.6211 5.99414 24.6211 5.71484 24.6211 5.47852 24.3848 5.47852 24.084 5.47852 23.9336 5.58594 23.8262 5.69336 23.6973L21.2695 6.29492C21.4629 6.12305 21.6133 5.97266 21.8711 5.97266Z" stroke="#FFFFFF" stroke-width="4.66667" fill="#FFFFFF" transform="matrix(1 0 0 -1 510 543.594)"/></g></svg>